<?xml version="1.0" standalone="no"?>
<!DOCTYPE svg PUBLIC "-//W3C//DTD SVG 20010904//EN"
 "http://www.w3.org/TR/2001/REC-SVG-20010904/DTD/svg10.dtd">
<svg version="1.0" xmlns="http://www.w3.org/2000/svg"
 width="1280.000000pt" height="1114.000000pt" viewBox="0 0 1280.000000 1114.000000"
 preserveAspectRatio="xMidYMid meet">
<metadata>
Created by potrace 1.15, written by Peter Selinger 2001-2017
</metadata>
<g transform="translate(0.000000,1114.000000) scale(0.100000,-0.100000)"
fill="#e6a3a3" stroke="none">
<path d="M8543 11125 c-241 -65 -480 -343 -633 -736 -112 -287 -159 -537 -160
-836 0 -258 38 -501 115 -741 l33 -103 -36 -51 c-19 -29 -53 -91 -74 -138 -22
-47 -60 -129 -86 -183 l-46 -98 38 -75 c41 -81 66 -160 66 -211 0 -23 -8 -37
-30 -55 -78 -59 -97 -80 -119 -126 -18 -38 -39 -61 -89 -97 -42 -30 -62 -40
-57 -28 6 14 27 523 21 530 -4 6 -179 -387 -237 -534 -7 -20 -12 -21 -36 -12
-104 39 -261 183 -399 364 -48 63 -89 114 -91 111 -14 -13 146 -350 203 -428
52 -70 138 -144 191 -164 27 -9 51 -20 55 -23 4 -3 12 -37 18 -75 11 -68 32
-118 71 -167 l21 -26 -45 -179 c-77 -303 -116 -529 -137 -788 -5 -71 -13 -132
-16 -135 -3 -3 -20 12 -37 34 -149 188 -339 317 -520 353 -163 32 -332 -21
-455 -144 -106 -106 -139 -221 -92 -319 72 -148 355 -225 490 -133 62 43 93
92 98 156 5 68 -14 99 -81 131 -75 36 -175 21 -212 -33 -47 -66 45 -157 98
-98 27 30 21 41 -18 35 -30 -5 -35 -3 -35 14 0 28 22 44 68 50 31 4 44 0 68
-20 25 -22 29 -32 28 -74 -1 -85 -48 -130 -148 -140 -98 -10 -232 50 -283 126
-45 66 -18 173 65 258 181 186 460 175 700 -26 82 -70 200 -205 237 -273 l28
-51 -30 6 c-17 3 -42 9 -57 13 -14 3 -26 2 -26 -2 0 -5 25 -43 56 -84 67 -88
74 -109 74 -215 0 -44 7 -143 15 -220 8 -77 15 -157 15 -178 l0 -39 -52 79
c-64 97 -200 233 -293 294 -198 130 -387 189 -605 189 -357 0 -622 -168 -680
-432 -15 -65 -3 -142 30 -209 49 -96 164 -182 279 -209 48 -11 137 -9 173 5 8
3 25 -15 46 -49 38 -64 40 -76 10 -76 -23 0 -23 -2 -21 -120 1 -66 7 -137 12
-158 6 -20 52 -118 104 -217 59 -114 89 -183 82 -187 -5 -4 -31 -8 -56 -8 -58
0 -184 -32 -240 -60 -63 -33 -135 -106 -166 -169 -24 -50 -28 -67 -28 -156 0
-89 4 -106 28 -157 34 -68 92 -129 155 -160 65 -32 187 -33 228 -2 76 56 88
112 49 242 -14 51 -24 96 -20 102 3 5 23 14 45 20 49 13 113 0 147 -32 63 -58
123 -246 109 -344 -11 -82 -91 -216 -248 -417 l-85 -108 -204 -134 -204 -135
-115 -11 c-154 -16 -397 -6 -522 21 -100 21 -238 67 -238 79 0 4 41 27 91 51
203 98 251 193 200 391 -11 41 -29 119 -40 174 -26 124 -67 209 -127 265 -25
23 -54 61 -64 84 -22 52 -43 63 -63 33 -8 -12 -17 -20 -20 -17 -3 3 -11 37
-17 75 -15 100 -18 105 -48 105 -42 0 -52 12 -64 78 -12 64 -16 69 -48 52 -17
-9 -24 -3 -53 42 -39 61 -88 108 -94 92 -2 -6 -10 -20 -17 -30 -13 -17 -15
-16 -35 18 -20 34 -24 36 -61 31 -33 -5 -45 -1 -77 24 -38 31 -111 73 -125 73
-14 0 -9 -38 12 -90 29 -73 27 -80 -19 -80 -38 0 -39 0 -48 -47 -7 -43 -12
-49 -42 -59 -39 -13 -46 -23 -55 -86 -6 -41 -10 -47 -34 -50 -25 -3 -27 -7
-30 -50 -3 -43 -6 -47 -33 -53 -29 -7 -29 -7 -29 -75 0 -68 -14 -100 -43 -100
-7 0 -36 47 -66 104 l-54 105 6 88 c10 164 132 640 172 673 19 16 91 -25 128
-73 30 -40 108 -82 138 -74 15 4 23 -1 31 -21 36 -93 26 -85 134 -106 136 -26
236 -32 274 -16 23 9 34 24 47 61 l18 49 60 0 c112 0 174 32 226 117 20 35 53
68 92 96 62 43 91 75 102 115 5 17 -1 29 -24 51 l-31 29 35 58 c41 67 42 81
15 134 -11 22 -25 63 -31 92 -15 77 -28 106 -60 131 l-28 22 10 76 c17 138 -7
182 -111 196 -53 8 -55 10 -70 51 -19 50 -16 47 -150 168 -58 52 -114 97 -126
100 -13 3 -42 -8 -80 -30 l-59 -36 -37 37 -37 36 -87 -57 c-48 -31 -90 -56
-95 -56 -4 0 -21 24 -38 54 -45 81 -78 82 -128 4 -4 -7 -28 -28 -51 -47 l-44
-33 -26 19 c-53 40 -58 22 122 500 177 469 244 665 292 848 l28 109 79 86 c80
87 105 120 89 120 -5 0 -33 -5 -62 -10 -29 -6 -55 -8 -58 -6 -20 20 226 295
343 383 130 98 278 151 389 138 159 -18 309 -149 375 -330 27 -71 38 -204 22
-261 -28 -105 -113 -165 -243 -172 -161 -9 -248 68 -248 218 0 54 30 124 60
140 64 34 158 -60 120 -120 -8 -12 -13 -11 -33 8 -29 27 -37 28 -37 1 0 -77
82 -109 121 -46 26 41 22 125 -7 164 -39 51 -71 68 -133 68 -46 0 -66 -6 -99
-27 -61 -41 -77 -77 -76 -173 0 -96 24 -159 86 -222 65 -66 124 -88 238 -88
82 0 103 4 152 27 86 40 124 74 154 135 24 48 27 67 27 156 1 183 -57 331
-179 454 -98 101 -192 145 -316 151 -74 4 -101 0 -170 -21 -136 -43 -294 -152
-435 -300 -37 -40 -75 -77 -83 -84 -13 -10 -15 20 -15 250 0 156 -6 301 -13
357 -24 176 -64 415 -72 423 -4 4 -17 -15 -29 -43 l-22 -52 20 -116 c29 -165
41 -303 41 -459 0 -120 -2 -134 -15 -123 -41 34 -338 527 -440 729 -98 197
-216 493 -201 508 3 4 70 9 147 11 l140 5 25 38 c13 22 29 39 35 39 6 0 45
-19 88 -42 l77 -42 131 78 c158 94 278 183 316 233 24 32 28 45 24 81 -3 23
-17 61 -32 83 -14 23 -25 42 -23 44 2 1 17 9 34 18 57 29 132 106 163 168 40
81 47 148 23 219 l-19 55 36 75 c29 61 36 87 36 137 0 81 -14 96 -98 103 l-62
5 0 70 c-1 87 -17 115 -90 150 -30 14 -58 25 -63 25 -6 0 -32 20 -58 44 -90
80 -121 96 -185 96 l-57 0 -42 78 c-103 191 -167 223 -316 157 -31 -14 -58
-25 -60 -25 -2 0 -27 19 -56 43 -73 59 -73 59 -142 67 -33 4 -133 26 -220 49
-216 56 -214 56 -259 -21 -21 -35 -45 -82 -53 -105 -19 -49 -29 -51 -84 -23
-22 11 -52 20 -68 20 -28 0 -32 -6 -85 -132 -31 -73 -60 -145 -66 -160 -12
-33 -29 -35 -62 -9 -44 34 -107 60 -150 63 l-44 3 -7 -65 c-13 -123 -53 -295
-69 -298 -8 -1 -35 6 -59 17 -24 11 -47 18 -51 15 -14 -8 -31 -241 -27 -358 5
-113 8 -129 50 -241 25 -66 53 -147 62 -180 30 -109 32 -111 99 -135 93 -34
173 -77 216 -116 l39 -35 -14 -52 c-21 -78 -18 -137 9 -188 13 -24 35 -51 49
-58 24 -14 32 -12 92 13 57 25 75 28 122 22 74 -9 156 -38 227 -82 l59 -36 80
31 c43 17 92 31 108 31 26 0 31 -5 40 -40 23 -85 105 -272 210 -479 60 -118
108 -217 106 -219 -10 -10 -511 297 -595 364 -2 2 10 19 27 38 71 81 43 219
-51 255 -34 13 -42 12 -72 -2 -44 -21 -69 -69 -68 -132 0 -69 28 -117 109
-196 81 -77 159 -131 417 -286 229 -137 298 -185 364 -253 82 -84 189 -306
231 -480 21 -85 38 -210 29 -210 -2 0 -34 14 -70 30 -37 17 -69 30 -72 30 -3
0 19 -47 49 -104 32 -59 56 -116 56 -133 0 -70 -102 -388 -324 -1006 -53 -147
-96 -274 -96 -282 0 -19 -19 -29 -25 -13 -2 7 -25 173 -50 368 -59 467 -55
446 -85 442 -14 -2 -27 -6 -30 -9 -9 -9 -2 -108 18 -253 111 -783 109 -750 43
-896 -22 -51 -41 -96 -41 -102 0 -6 -13 -43 -29 -83 -23 -57 -27 -78 -20 -104
7 -23 2 -68 -15 -161 -42 -225 -58 -390 -54 -575 2 -93 2 -169 1 -169 -9 0
-35 77 -103 313 -120 415 -178 573 -289 795 -177 352 -446 623 -734 738 -100
40 -118 65 -143 202 -28 157 -6 267 78 393 103 154 312 233 439 166 85 -45
139 -181 119 -302 -21 -128 -89 -198 -193 -199 -108 0 -162 107 -89 179 43 44
109 21 68 -24 -22 -24 -20 -31 7 -31 27 0 57 28 57 54 0 35 -30 74 -65 86 -30
10 -40 9 -67 -7 -17 -10 -45 -35 -61 -56 -26 -31 -32 -49 -35 -100 -3 -52 0
-67 20 -96 64 -93 171 -113 283 -53 100 54 163 196 151 338 -16 194 -125 314
-287 314 -258 0 -487 -231 -506 -510 -5 -66 12 -202 34 -274 5 -17 1 -18 -28
-12 -95 19 -230 26 -323 16 -136 -14 -205 -33 -321 -90 -206 -99 -345 -277
-420 -537 -47 -162 -42 -310 14 -430 53 -111 180 -207 288 -218 l48 -5 -45 13
c-64 18 -112 50 -164 108 -197 219 -177 460 58 695 96 96 202 169 340 235 161
77 256 101 422 106 93 4 148 2 162 -6 20 -11 148 -221 134 -221 -4 0 -23 5
-42 10 -19 6 -66 15 -103 20 -190 28 -390 -73 -509 -254 l-38 -60 -113 0
c-123 -1 -152 -10 -215 -70 -49 -45 -64 -81 -64 -147 0 -198 221 -302 353
-167 l37 38 36 -40 c41 -45 43 -55 20 -90 -56 -83 -137 -143 -217 -160 l-42
-9 50 3 c72 4 151 44 226 114 l65 60 59 -14 c183 -43 328 13 396 151 58 118
41 224 -43 267 -115 60 -258 3 -258 -103 0 -52 12 -73 50 -89 25 -10 34 -10
55 4 24 16 44 61 32 73 -4 3 -18 -2 -31 -11 -36 -23 -46 -20 -46 12 0 35 34
69 78 78 82 17 138 -95 97 -194 -35 -82 -105 -125 -205 -125 -36 0 -82 5 -102
12 l-36 12 2 92 c1 77 -3 100 -22 143 -13 29 -37 64 -53 80 -16 15 -29 35 -29
44 0 27 40 93 83 138 225 232 567 174 892 -153 55 -55 128 -140 163 -190 68
-97 148 -250 158 -303 l7 -33 -72 7 c-39 3 -71 3 -71 -2 0 -5 37 -43 81 -84
l81 -76 8 -144 c4 -79 6 -150 3 -157 -7 -18 -24 -16 -84 7 -57 23 -79 16 -79
-25 0 -38 -11 -36 -69 16 -71 63 -91 69 -135 36 l-33 -26 -44 25 c-92 51 -88
51 -113 19 -23 -29 -24 -29 -119 -26 -53 1 -105 0 -116 -4 -20 -6 -20 -8 -6
-42 l15 -36 -54 7 -55 6 -36 -44 c-31 -39 -45 -47 -93 -57 -57 -11 -126 -41
-136 -58 -9 -14 27 -39 69 -46 22 -4 53 -14 68 -22 l28 -14 -31 -38 c-34 -43
-36 -51 -16 -51 7 0 26 -16 42 -37 27 -35 27 -37 11 -65 -24 -41 -22 -47 24
-94 39 -40 41 -44 30 -75 -16 -45 -15 -46 29 -69 40 -20 40 -21 25 -49 -14
-28 -14 -30 18 -58 18 -15 49 -39 69 -53 33 -22 37 -30 40 -74 3 -46 6 -52 48
-81 39 -28 46 -38 53 -81 5 -27 15 -56 23 -65 17 -19 104 -59 149 -68 19 -4
35 -17 43 -34 18 -37 39 -46 158 -68 113 -20 135 -28 176 -66 25 -24 31 -25
125 -21 88 3 106 7 168 37 93 46 200 151 245 243 24 50 36 93 46 169 7 55 15
103 17 106 6 5 50 -74 117 -207 34 -68 45 -100 39 -112 -14 -26 -11 -89 7
-148 9 -29 14 -67 11 -84 -6 -45 10 -93 59 -172 37 -59 44 -79 44 -121 0 -44
5 -58 39 -101 50 -62 162 -138 251 -168 37 -12 112 -28 166 -34 90 -11 108
-10 206 9 106 22 148 21 178 -4 24 -21 218 -83 315 -101 50 -9 148 -19 219
-23 l128 -6 -143 -77 c-230 -122 -457 -215 -667 -273 -70 -20 -126 -15 -317
30 -302 71 -404 122 -762 381 -443 322 -640 398 -1028 398 -210 0 -309 -13
-497 -65 l-137 -37 -78 33 c-173 75 -337 100 -588 92 -249 -9 -417 -52 -629
-160 -225 -115 -409 -295 -516 -505 -89 -175 -53 -387 89 -531 76 -78 150
-113 250 -119 241 -14 424 166 381 373 -29 138 -168 217 -326 185 -82 -16
-138 -51 -170 -106 -23 -38 -26 -53 -22 -107 5 -78 30 -116 96 -148 58 -29
147 -31 187 -5 39 26 65 75 65 124 0 57 -41 102 -93 102 -69 0 -91 -23 -32
-34 41 -8 78 -50 69 -80 -3 -12 -19 -33 -35 -49 -56 -52 -153 -25 -192 56 -24
47 -11 93 39 137 48 42 97 60 163 60 113 0 187 -77 185 -195 0 -72 -25 -126
-82 -177 -59 -53 -117 -72 -206 -66 -129 8 -250 88 -299 196 -29 66 -35 208
-12 288 79 276 394 525 795 631 95 25 121 27 280 28 113 0 195 -5 230 -13 86
-21 270 -83 270 -91 0 -4 -42 -34 -92 -66 -179 -115 -349 -303 -437 -485 l-46
-95 0 -120 0 -120 42 -87 c96 -200 291 -315 473 -279 123 24 227 90 281 177
24 40 49 125 49 170 0 59 -30 135 -72 180 -58 63 -128 87 -238 82 -98 -5 -158
-27 -209 -79 -44 -44 -61 -87 -61 -149 0 -57 15 -93 57 -132 83 -80 252 -77
303 5 35 58 30 135 -14 176 -20 18 -33 22 -80 19 -31 -2 -56 -7 -57 -12 0 -5
22 -16 48 -25 83 -28 91 -92 20 -145 -37 -27 -108 -27 -145 1 -39 29 -72 82
-72 116 0 58 61 123 147 157 52 20 163 9 205 -19 58 -40 82 -85 86 -161 7
-123 -61 -223 -184 -270 -153 -58 -365 26 -446 177 -55 102 -58 263 -7 398 50
134 201 305 362 409 80 52 198 116 215 116 16 0 192 -106 432 -260 286 -184
364 -229 520 -304 311 -148 886 -256 1371 -256 338 0 598 39 879 134 106 35
323 128 347 148 22 18 14 -2 -16 -41 -15 -20 -48 -67 -71 -106 -217 -354 -280
-814 -164 -1212 109 -378 404 -665 774 -755 80 -19 280 -16 360 6 157 43 289
145 351 271 30 62 34 79 34 150 0 71 -4 88 -33 147 -85 174 -272 244 -432 163
-68 -34 -165 -132 -193 -194 -32 -69 -29 -153 6 -213 48 -83 141 -143 270
-174 37 -10 64 -21 60 -25 -22 -21 -166 -51 -273 -56 -188 -9 -311 34 -440
154 -333 308 -416 1066 -181 1664 39 101 120 230 192 309 35 39 40 42 35 20
-41 -196 9 -369 148 -505 175 -173 411 -214 620 -108 114 58 178 166 179 305
1 66 -4 85 -32 142 -38 77 -92 128 -168 156 -67 25 -116 25 -170 0 -80 -36
-104 -126 -67 -250 16 -54 16 -54 -7 -73 -30 -24 -108 -19 -147 10 -36 25 -89
134 -103 208 -13 67 -6 167 15 236 38 125 106 204 216 249 206 86 397 224 618
447 123 123 187 180 260 228 268 175 681 362 843 381 55 6 189 -18 372 -66
244 -65 321 -108 720 -408 307 -231 449 -314 635 -367 155 -46 254 -58 457
-58 204 0 350 18 527 67 l84 23 46 -23 c192 -98 430 -142 703 -130 260 10 437
53 652 158 330 160 613 497 613 729 0 234 -180 459 -390 487 -168 23 -339 -58
-407 -193 -31 -59 -42 -172 -24 -228 42 -127 176 -193 340 -166 81 12 143 47
177 99 34 51 44 100 32 152 -40 182 -321 213 -367 41 -26 -96 56 -172 154
-145 l30 9 -60 29 c-63 30 -74 48 -61 100 8 32 62 64 106 64 69 0 140 -69 140
-136 0 -82 -110 -164 -220 -164 -203 0 -281 227 -132 384 80 84 198 108 323
66 79 -27 126 -58 177 -115 60 -68 82 -135 82 -249 0 -142 -37 -240 -141 -372
-131 -166 -391 -322 -664 -399 -143 -41 -214 -50 -375 -49 -134 0 -169 4 -258
27 -137 36 -297 98 -282 110 3 2 39 23 80 47 246 143 459 378 539 593 26 72
29 216 5 298 -42 142 -154 279 -280 340 -66 33 -73 34 -186 34 -91 0 -118 3
-118 13 0 10 11 12 45 6 l45 -6 0 35 c0 39 3 41 80 52 50 8 60 17 60 58 0 30
28 47 80 47 34 0 47 15 30 35 -10 12 -9 20 4 40 9 14 18 25 20 25 2 0 30 -13
61 -30 71 -37 99 -40 89 -7 -11 36 -34 79 -70 128 -28 39 -34 56 -34 98 0 49
-2 52 -42 77 l-42 27 22 17 c12 10 22 25 22 34 0 15 -93 96 -109 96 -22 0 -61
51 -61 79 0 33 -6 36 -86 46 -48 6 -52 9 -70 48 l-19 42 -88 0 -87 0 6 42 6
41 -54 11 c-31 7 -74 26 -101 45 -27 19 -71 40 -99 47 -58 13 -212 6 -233 -11
-8 -6 -26 -10 -41 -8 l-27 3 44 55 c97 124 502 584 619 704 452 465 820 610
1208 477 118 -41 231 -112 337 -213 192 -183 298 -396 312 -629 7 -118 -16
-209 -74 -286 -75 -102 -176 -148 -308 -141 -100 5 -185 42 -254 110 -65 65
-85 110 -85 193 0 84 23 135 84 187 99 85 262 77 357 -18 40 -41 43 -47 43
-99 0 -64 -16 -102 -59 -138 -39 -32 -82 -42 -124 -27 -78 25 -105 103 -58
169 l24 34 -25 -17 c-28 -19 -68 -85 -68 -114 0 -30 46 -79 86 -92 50 -17 151
-9 199 16 84 44 133 155 106 244 -17 56 -70 113 -134 141 -70 32 -215 34 -297
4 -78 -28 -160 -111 -190 -190 -46 -125 -11 -281 80 -356 188 -157 489 -137
655 43 205 221 190 551 -42 901 -99 151 -303 328 -459 398 -520 236 -1145 -83
-1830 -931 -34 -41 -142 -178 -240 -305 -99 -126 -225 -288 -281 -360 -56 -71
-115 -143 -132 -159 l-31 -29 3 94 c2 73 -2 100 -14 119 -10 14 -20 56 -24 94
-9 91 -9 91 -64 124 -37 23 -50 38 -59 70 -10 32 -19 43 -50 55 -38 15 -62 49
-62 86 0 30 -33 63 -63 63 -22 1 -26 5 -29 31 -3 27 -8 33 -40 40 -31 7 -42
18 -64 57 -25 46 -27 48 -64 43 -37 -5 -39 -4 -60 38 -13 24 -24 45 -25 47 -2
2 -17 -4 -34 -12 -16 -9 -33 -16 -37 -16 -4 0 -3 36 0 80 5 51 4 80 -3 80 -30
0 -61 -25 -100 -80 -31 -44 -56 -67 -89 -83 -37 -18 -47 -28 -53 -55 -9 -43
-11 -45 -43 -32 -24 9 -28 7 -45 -21 -11 -18 -25 -60 -32 -96 -11 -52 -17 -65
-35 -69 -38 -10 -43 -24 -31 -93 l10 -64 -33 -27 c-30 -25 -32 -30 -26 -65 4
-22 16 -56 27 -77 10 -20 19 -40 19 -42 0 -3 -17 -8 -38 -12 l-37 -6 -2 -71
c0 -40 -4 -106 -8 -149 -9 -96 -3 -115 94 -297 83 -157 132 -220 195 -254 38
-21 52 -22 214 -19 94 1 172 -2 172 -6 0 -15 -43 -48 -187 -146 -319 -215
-638 -333 -978 -361 -181 -15 -269 -27 -378 -51 -100 -21 -148 -39 -308 -115
-81 -38 -154 -69 -163 -69 -9 0 -26 -15 -37 -34 -17 -30 -46 -52 -55 -44 -1 2
22 45 52 97 137 241 219 513 239 801 8 100 -19 342 -49 446 -8 27 -17 112 -21
189 -3 77 -13 212 -20 300 -8 88 -17 207 -20 265 -8 119 -11 113 94 222 24 26
43 50 40 52 -2 3 -33 -2 -67 -11 -35 -9 -65 -13 -68 -10 -11 11 37 149 81 236
58 115 153 257 206 307 55 52 107 85 339 214 216 119 353 209 429 280 54 50
55 50 75 31 40 -36 63 -43 107 -31 23 6 45 8 49 3 4 -4 18 -39 30 -78 13 -38
28 -73 34 -77 35 -23 324 -68 433 -68 113 0 152 29 167 121 l6 36 113 5 c95 4
121 9 169 32 63 30 118 85 151 152 18 39 33 51 100 87 167 89 201 180 92 243
-18 10 -17 14 27 63 65 72 71 108 31 181 -17 31 -36 85 -42 124 -15 88 -30
116 -75 140 -41 22 -40 20 -21 101 22 88 19 157 -6 189 -28 35 -51 47 -133 66
l-69 15 -17 59 c-14 51 -27 70 -96 140 -43 45 -115 121 -158 170 l-79 88 -43
-6 c-24 -3 -71 -15 -105 -26 -50 -17 -64 -19 -70 -8 -5 7 -19 31 -32 53 -20
35 -28 40 -58 39 -19 -1 -83 -20 -143 -44 -82 -33 -112 -41 -124 -33 -9 5 -27
39 -39 74 -12 36 -33 74 -48 86 l-26 23 -77 -54 c-42 -29 -103 -68 -134 -86
-54 -29 -58 -30 -64 -13 -20 55 -34 83 -42 83 -5 0 -34 -18 -65 -40 -71 -51
-79 -51 -71 3 34 221 161 477 310 622 80 78 195 140 279 150 195 25 435 -159
435 -332 0 -106 -121 -208 -259 -220 -45 -4 -65 0 -101 19 -82 43 -114 154
-59 209 40 40 139 14 139 -37 0 -13 -7 -15 -35 -10 -40 8 -48 -9 -17 -37 43
-39 102 -8 102 54 0 66 -56 109 -143 109 -183 0 -198 -266 -20 -347 47 -22 65
-24 136 -21 100 4 173 35 246 103 64 60 81 97 81 177 0 87 -39 164 -125 251
-217 217 -509 202 -751 -38 -116 -115 -204 -266 -254 -433 -12 -41 -23 -72
-26 -70 -10 10 -74 344 -83 437 -30 286 0 534 100 835 120 361 315 644 509
739 139 69 244 71 374 7 60 -30 166 -113 166 -130 0 -5 -26 -20 -57 -35 -84
-38 -122 -71 -149 -129 -39 -85 -26 -174 33 -226 39 -35 71 -45 116 -36 107
20 207 221 178 357 -16 74 -32 99 -115 176 -142 133 -297 180 -453 138z m-832
-3513 c50 -33 102 -93 124 -146 14 -33 13 -40 -19 -133 -111 -323 -369 -761
-586 -993 l-51 -55 6 95 c19 294 119 745 191 863 41 66 52 138 36 224 -11 61
-6 68 54 78 23 3 75 26 115 50 41 24 76 44 80 44 3 1 25 -12 50 -27z m294
-352 c84 -36 102 -54 110 -110 4 -32 16 -62 32 -81 14 -16 23 -35 20 -43 -9
-23 -539 -336 -569 -336 -4 0 18 39 48 88 62 98 188 345 225 440 22 58 26 62
56 62 17 0 52 -9 78 -20z m-5505 -1208 c123 -70 235 -183 342 -345 72 -108 76
-115 57 -101 -8 6 -50 38 -94 71 -44 33 -110 81 -147 106 -88 62 -174 166
-237 285 -12 22 -11 23 11 17 12 -4 43 -19 68 -33z m3915 -347 c147 -39 293
-143 391 -280 54 -76 135 -245 163 -340 l20 -69 -37 42 c-20 23 -49 46 -64 51
-15 6 -45 34 -67 64 -31 43 -48 56 -75 61 -25 5 -36 12 -38 28 -2 17 -13 24
-43 30 -24 5 -54 22 -75 43 -29 29 -44 35 -77 35 -34 0 -46 6 -68 31 -23 28
-29 31 -51 20 -44 -19 -52 -14 -59 39 -4 28 -15 60 -25 72 l-18 23 -33 -54
c-18 -29 -35 -48 -37 -41 -2 6 -31 32 -64 56 -66 48 -178 88 -283 100 l-60 7
54 24 c169 75 390 99 546 58z m-4730 -157 c3 -3 2 -38 -1 -77 l-7 -73 -24 31
c-14 17 -28 31 -33 31 -4 0 -10 -38 -11 -85 -3 -64 -8 -89 -22 -102 -16 -16
-20 -16 -45 -3 -15 8 -40 39 -55 70 -47 92 -29 171 48 207 28 13 137 14 150 1z
m114 -67 c24 -24 41 -81 41 -138 0 -49 -7 -53 -38 -20 -29 31 -42 70 -42 128
0 53 9 60 39 30z m1445 -671 c28 -69 80 -249 74 -255 -2 -2 -22 7 -45 20 -39
24 -41 27 -47 87 -13 147 -18 223 -13 218 3 -3 17 -34 31 -70z m471 -4 c26
-27 52 -68 66 -106 18 -47 32 -68 57 -83 17 -10 32 -26 32 -35 0 -10 -15 -64
-34 -122 -19 -58 -58 -179 -87 -270 l-53 -165 -7 70 c-4 41 -18 97 -34 135
-28 64 -28 67 -29 285 -1 250 7 335 31 335 9 0 35 -20 58 -44z m5983 -48 c-65
-206 19 -468 187 -584 50 -34 58 -36 107 -31 46 4 65 0 145 -34 101 -43 110
-44 147 -28 20 9 38 8 84 -5 89 -25 109 -22 158 24 35 33 51 40 83 40 33 0 44
6 68 35 19 23 40 37 63 41 35 6 35 6 -33 -56 -38 -35 -80 -85 -95 -114 -24
-46 -27 -62 -27 -151 0 -91 2 -104 28 -147 33 -57 75 -90 142 -113 143 -48
294 -19 377 73 140 155 4 378 -213 349 -121 -16 -184 -174 -100 -249 27 -24
40 -28 92 -28 71 0 70 11 -6 44 -38 17 -54 31 -59 49 -13 53 34 110 99 123 98
18 195 -84 171 -180 -16 -65 -116 -133 -211 -143 -157 -16 -277 113 -246 265
27 137 129 227 269 239 193 16 375 -100 427 -272 19 -64 19 -213 0 -284 -44
-165 -183 -341 -374 -470 -73 -50 -253 -141 -279 -141 -29 0 -215 116 -467
291 -419 292 -630 402 -921 479 -201 53 -427 97 -616 120 -54 7 -98 14 -98 15
0 2 63 37 139 79 229 125 409 252 582 412 26 23 79 63 119 89 92 59 147 116
190 196 30 57 78 129 85 129 2 0 -6 -28 -17 -62z m-2709 -760 c-35 -129 -61
-201 -102 -285 -39 -81 -57 -95 -57 -48 0 13 -22 93 -50 178 -27 85 -50 157
-50 161 0 3 21 6 46 6 51 0 155 24 194 45 14 8 28 14 32 15 4 0 -2 -33 -13
-72z m-377 42 c33 -10 39 -17 66 -83 17 -39 51 -144 76 -232 l46 -160 -33 -47
c-17 -27 -34 -48 -37 -48 -3 0 -4 28 -2 63 6 89 -20 222 -58 303 -24 49 -54
89 -107 141 l-74 73 43 0 c24 0 60 -5 80 -10z m2261 -309 c397 -70 843 -246
1154 -454 196 -131 473 -341 460 -348 -30 -17 -188 -39 -281 -39 -197 0 -365
43 -628 161 -133 59 -266 133 -563 309 -444 264 -557 319 -754 370 -91 24 -22
31 239 27 199 -4 281 -10 373 -26z m-6383 -956 c262 -51 447 -131 965 -420
400 -223 543 -290 682 -320 66 -14 39 -22 -90 -29 -374 -19 -743 48 -1147 206
-268 105 -382 168 -670 365 -230 158 -235 161 -228 168 2 3 38 14 79 24 94 24
301 28 409 6z"/>
<path d="M8405 6685 c-41 -34 -86 -41 -123 -20 -27 16 -30 16 -62 0 -18 -9
-45 -30 -60 -47 l-27 -29 -30 25 -29 25 -45 -21 c-24 -11 -70 -24 -101 -28
-108 -16 -160 -49 -304 -193 -149 -150 -177 -194 -177 -278 1 -44 10 -76 47
-156 25 -55 46 -110 46 -121 0 -22 -26 -46 -217 -201 -105 -86 -131 -119 -105
-135 12 -7 66 29 176 119 108 88 157 125 167 125 3 0 16 -23 30 -52 30 -65
117 -155 189 -196 71 -41 184 -66 262 -59 48 4 68 12 100 37 27 22 65 39 117
52 100 25 130 37 141 58 5 10 48 37 94 59 86 43 96 54 96 112 0 18 12 35 40
58 31 25 40 39 40 63 0 25 11 42 54 82 47 44 53 55 49 81 -3 25 1 33 27 47 28
16 30 21 24 54 -6 31 -3 40 26 70 32 32 33 35 22 71 -11 35 -10 39 18 68 l29
30 -19 30 c-26 39 -26 41 13 48 51 9 107 36 107 52 0 14 -63 37 -144 51 -21 4
-54 20 -72 37 -30 25 -40 29 -75 24 -40 -5 -40 -5 -34 23 6 25 3 28 -29 34
-19 4 -65 2 -102 -4 -62 -10 -68 -9 -89 10 -27 25 -33 25 -70 -5z"/>
</g>
</svg>
