<svg width="886" height="878" viewBox="0 0 886 878" fill="none" xmlns="http://www.w3.org/2000/svg">
<g id="undraw_jewelry_iima 1" clip-path="url(#clip0)">
<path id="Vector" d="M806.476 464.199L275.309 304.993L184.468 608.071L715.635 767.276L806.476 464.199Z" fill="#FFF0F0"/>
<path id="Vector_2" d="M716.006 771.089L0 550.774L169.473 0L885.479 220.315L716.006 771.089ZM3.96448 548.752L713.864 767.188L881.514 222.337L171.615 3.90066L3.96448 548.752Z" fill="#FFC6C6"/>
<path id="Vector_3" d="M455.802 184.269H258.087V408.651H455.802V184.269Z" fill="black"/>
<path id="Vector_4" d="M566.418 850.143H278.435V743.341C278.482 718.263 282.943 693.389 291.613 669.857C292.052 668.656 292.491 667.473 292.948 666.291C305.707 633.125 322.3 613.653 322.3 613.653C438.637 678.497 509.203 619.374 509.203 619.374L521.829 670.296L522.744 673.996L556.329 809.443L557.245 813.162L566.418 850.143Z" fill="#4F1E1E"/>
<path id="Vector_5" d="M522.744 673.996C479.413 684.542 441.021 688.166 408.657 688.166C388.51 688.212 368.388 686.727 348.466 683.722C329.136 680.823 310.108 676.183 291.613 669.857C292.052 668.656 292.491 667.473 292.948 666.291C311.267 672.554 330.118 677.138 349.267 679.984C388.612 686.011 447.964 688.262 521.829 670.296L522.744 673.996Z" fill="#4F1E1E"/>
<path id="Vector_6" d="M557.245 813.162C499.629 831.185 449.356 836.926 408.657 836.926C388.51 836.972 368.388 835.486 348.466 832.482C315.701 827.428 291.804 819.17 278.435 813.658V809.52C291.232 814.936 315.434 823.557 349.267 828.744C394.563 835.686 466.387 837.613 556.329 809.443L557.245 813.162Z" fill="#4F1E1E"/>
<path id="Vector_7" d="M565.465 368.581L524.861 438.688V438.707L523.507 441.053L430.055 524.969L315.625 446.775L266.038 383.838C266.038 383.838 273.667 359.045 300.367 355.23C307.405 354.219 313.374 353.228 318.809 352.083C322.509 351.302 325.961 350.462 329.337 349.509C339.807 346.553 349.477 342.528 363.304 336.159C388.097 324.716 355.675 288.479 355.675 288.479L422.426 246.521C422.426 246.521 452.064 342.834 504.035 341.975C504.797 341.975 505.56 341.937 506.342 341.88C509.203 341.67 511.93 341.575 514.524 341.556C560.334 341.251 565.465 368.581 565.465 368.581Z" fill="#E88B8B"/>
<path id="Vector_8" d="M332.789 421.981L318.809 352.083C322.509 351.302 325.961 350.462 329.337 349.509L332.789 421.981Z" fill="#FFE0E0"/>
<path id="Vector_9" d="M514.524 341.556L501.574 411.492L504.035 341.975C504.797 341.975 505.56 341.937 506.342 341.88C509.203 341.67 511.93 341.575 514.524 341.556Z" fill="#3F3D56"/>
<path id="Vector_10" d="M359.49 296.108C399.515 296.108 431.962 263.661 431.962 223.635C431.962 183.61 399.515 151.162 359.49 151.162C319.464 151.162 287.017 183.61 287.017 223.635C287.017 263.661 319.464 296.108 359.49 296.108Z" fill="#FFB8B8"/>
<path id="Vector_11" d="M277.481 372.395L266.038 383.838C266.038 383.838 248.873 538.319 266.038 612.699L346.139 818.674C346.139 818.674 367.118 891.147 412.891 875.89C458.663 860.632 374.747 776.716 374.747 776.716L315.625 614.606V412.446L277.481 372.395Z" fill="#FFB8B8"/>
<path id="Vector_12" d="M536.857 351.416L565.465 368.581C565.465 368.581 590.258 454.404 569.279 572.648L536.857 797.695C536.857 797.695 517.785 883.518 477.735 862.539C437.684 841.56 504.435 770.995 504.435 770.995L521.6 595.535L525.414 412.446L536.857 351.416Z" fill="#FFB8B8"/>
<path id="Vector_13" d="M420.519 483.011L330.882 408.631L311.81 454.404C311.81 454.404 292.738 645.121 307.996 641.307C323.253 637.492 325.16 620.328 338.511 633.678C351.861 647.028 435.777 666.1 447.22 654.657C458.663 643.214 513.971 626.049 513.971 626.049C513.971 626.049 536.857 608.885 529.228 585.999C521.6 563.113 529.228 559.298 531.136 549.762C533.043 540.227 531.136 439.146 531.136 439.146L504.435 393.374L420.519 483.011Z" fill="#FFE0E0"/>
<path id="Vector_14" d="M422.914 356.23C439.844 354.128 454.526 343.366 466.552 324.246L463.323 322.216C451.941 340.312 438.194 350.482 422.466 352.443C394.515 355.927 369.303 332.23 369.052 331.99L366.418 334.75C367.42 335.707 389.656 356.615 416.653 356.615C416.67 356.615 416.688 356.613 416.705 356.613V386.795C414.356 387.033 412.18 388.134 410.596 389.885C409.013 391.636 408.136 393.912 408.135 396.273C408.135 398.633 409.01 400.91 410.592 402.662C412.174 404.414 414.35 405.517 416.698 405.756C419.047 405.996 421.4 405.355 423.303 403.958C425.206 402.562 426.523 400.508 426.999 398.196C427.475 395.884 427.075 393.478 425.878 391.443C424.681 389.409 422.771 387.891 420.519 387.184V356.452C421.316 356.391 422.112 356.33 422.914 356.23Z" fill="#FFE0E0"/>
<path id="Vector_15" d="M356.629 98.715C356.629 98.715 283.294 107.884 266.876 152.125C250.458 196.367 221.726 219.593 221.726 219.593C221.726 219.593 176.467 251.054 199.096 307.216C199.096 307.216 128.69 354.53 175.208 396.559C175.208 396.559 172.472 438.589 199.835 467.345C199.835 467.345 221.726 478.406 213.517 485.042C205.308 491.678 268.244 487.254 262.772 427.528C257.299 367.802 294.24 325.731 294.24 325.731C294.24 325.731 258.667 248.294 275.085 221.749C285.053 205.632 289.334 193.614 297.609 186.658C302.217 182.877 306.491 178.706 310.384 174.191C315.479 168.137 325.794 159.891 342.126 164.292C349.095 166.076 355.548 169.471 360.967 174.204C377.326 188.721 395.029 201.648 413.837 212.811C422.682 218.059 431.945 223.99 440.545 230.31C456.47 242.014 443.313 266.818 427.39 287.583C403.831 318.306 403.366 361.465 428.007 391.327C428.731 392.204 429.47 393.065 430.223 393.909C454.317 420.892 423.279 444.412 421.481 447.437C417.376 454.34 400.984 497.928 468.696 498.121C468.696 498.121 484.417 465.133 506.308 445.225C528.199 425.316 511.781 367.802 511.781 367.802C511.781 367.802 544.617 347.894 509.044 299.228C509.044 299.228 527.86 239.995 497.76 211.238C497.76 211.238 449.665 83.2305 356.629 98.715Z" fill="black"/>
<path id="Vector_16" d="M438.637 239.846C443.904 239.846 448.173 233.442 448.173 225.542C448.173 217.643 443.904 211.238 438.637 211.238C433.371 211.238 429.102 217.643 429.102 225.542C429.102 233.442 433.371 239.846 438.637 239.846Z" fill="#FFB8B8"/>
<path id="Vector_17" d="M439.591 285.665C428.524 285.665 419.519 274.094 419.519 259.872C419.519 245.649 428.524 234.078 439.591 234.078C439.856 234.078 440.11 234.183 440.298 234.371C440.486 234.559 440.591 234.813 440.591 235.078C440.591 235.343 440.486 235.598 440.298 235.785C440.11 235.973 439.856 236.078 439.591 236.078C429.626 236.078 421.519 246.752 421.519 259.872C421.519 272.991 429.626 283.665 439.591 283.665C449.556 283.665 457.663 272.991 457.663 259.872C457.663 248.175 453.47 239.619 446.444 236.984C446.197 236.89 445.996 236.702 445.887 236.461C445.778 236.219 445.769 235.945 445.862 235.697C445.955 235.449 446.143 235.248 446.384 235.138C446.625 235.028 446.899 235.018 447.148 235.111C454.984 238.051 459.663 247.307 459.663 259.872C459.663 274.094 450.659 285.665 439.591 285.665Z" fill="#FFE0E0"/>
<path id="Vector_18" d="M447.664 230.168C447.072 233.306 445.438 236.152 443.026 238.245Z" fill="#FFB8B8"/>
<path id="Vector_19" d="M376.481 775.994L337 795.434L337.961 797.385L377.442 777.945L376.481 775.994Z" fill="#FFE0E0"/>
<path id="Vector_20" d="M357.388 794.361C362.192 794.361 366.086 790.467 366.086 785.663C366.086 780.859 362.192 776.964 357.388 776.964C352.584 776.964 348.69 780.859 348.69 785.663C348.69 790.467 352.584 794.361 357.388 794.361Z" fill="#FFE0E0"/>
<path id="Vector_21" d="M715.202 770.784C677.277 749.642 653.668 720.778 645.03 684.995C638.615 658.427 640.459 628.53 650.507 596.134C657.957 572.25 669.126 549.689 683.603 529.284C760.406 420.571 767.338 349.733 759.629 309.451C751.177 265.282 723.715 246.939 723.438 246.759L724.624 244.936C724.907 245.12 753.093 263.89 761.749 308.954C766.738 334.934 764.391 364.558 754.771 397.003C742.798 437.382 719.451 482.31 685.379 530.539C671.034 550.758 659.967 573.112 652.584 596.778C636.103 649.91 633.771 722.899 716.26 768.885L715.202 770.784Z" fill="#4F1E1E"/>
<path id="Vector_22" d="M645.937 569.483C616.039 552.817 616.872 526.404 622.835 507.181C625.479 498.703 629.443 490.695 634.582 483.451C661.488 445.366 663.92 420.625 661.222 406.576C658.291 391.321 648.891 385.058 648.796 384.996L649.981 383.173C650.399 383.445 660.254 390.011 663.357 406.166C667.398 427.203 658.314 453.628 636.359 484.706C631.351 491.763 627.488 499.565 624.912 507.825C619.187 526.28 618.372 551.628 646.996 567.585L645.937 569.483Z" fill="#4F1E1E"/>
<path id="Vector_23" d="M780.452 328.109L779.393 326.209C808.018 310.252 807.202 284.904 801.478 266.45C798.901 258.189 795.038 250.387 790.031 243.331C768.075 212.252 758.991 185.827 763.032 164.791C766.135 148.635 775.99 142.069 776.408 141.797L777.595 143.619C777.5 143.682 768.051 150.027 765.151 165.286C762.483 179.327 764.941 204.047 791.807 242.075C796.946 249.319 800.91 257.327 803.555 265.805C809.518 285.028 810.35 311.441 780.452 328.109Z" fill="#4F1E1E"/>
<path id="Vector_24" d="M844.287 219.921C839.558 227.162 832.147 232.229 823.683 234.008C815.22 235.786 806.396 234.13 799.153 229.405C791.91 224.679 786.84 217.271 785.058 208.808C783.275 200.345 784.927 191.521 789.649 184.276C799.493 169.188 849.049 152.925 849.049 152.925C849.049 152.925 854.13 204.834 844.287 219.921Z" fill="#FFC6C6"/>
<path id="Vector_25" d="M844.287 219.921C839.558 227.162 832.147 232.229 823.683 234.008C815.22 235.786 806.396 234.13 799.153 229.405C791.91 224.679 786.84 217.271 785.058 208.808C783.275 200.345 784.927 191.521 789.649 184.276C799.493 169.188 849.049 152.925 849.049 152.925C849.049 152.925 854.13 204.834 844.287 219.921Z" fill="#FFC6C6"/>
<path id="Vector_26" d="M731.979 389.705C736.426 393.883 738.965 399.48 739.036 405.266C739.108 411.051 736.707 416.552 732.361 420.559C728.015 424.565 722.08 426.749 715.861 426.631C709.643 426.513 703.649 424.101 699.198 419.927C689.931 411.229 685.385 376.467 685.385 376.467C685.385 376.467 722.712 381.007 731.979 389.705Z" fill="#FFC6C6"/>
<path id="Vector_27" d="M832.326 118.804C827.597 126.043 820.186 131.108 811.724 132.885C803.261 134.662 794.439 133.007 787.197 128.282C779.955 123.557 774.885 116.15 773.102 107.688C771.32 99.2271 772.969 90.404 777.689 83.1587C787.533 68.0711 837.089 51.8081 837.089 51.8081C837.089 51.8081 842.17 103.717 832.326 118.804Z" fill="#F5AFAF"/>
<path id="Vector_28" d="M779.753 489.258C772.1 489.271 764.671 486.678 758.688 481.908C752.704 477.138 748.522 470.473 746.829 463.01C745.136 455.547 746.033 447.73 749.373 440.845C752.712 433.96 758.295 428.416 765.204 425.125C781.622 417.302 830.865 428.754 832.955 429.245L834.275 429.556L833.685 430.777C832.75 432.708 810.615 478.161 794.195 485.984C789.686 488.139 784.751 489.258 779.753 489.258V489.258ZM782.495 424.575C775.817 424.575 769.964 425.266 766.14 427.088C758.594 430.687 752.787 437.135 749.994 445.015C747.202 452.895 747.653 461.561 751.248 469.108C754.843 476.655 761.288 482.466 769.166 485.263C777.044 488.059 785.711 487.613 793.26 484.022C807.544 477.217 827.41 438.489 831.119 431.059C825.184 429.741 800.758 424.575 782.495 424.575V424.575Z" fill="#FFC6C6"/>
<path id="Vector_29" d="M713.282 189.994C716.447 192.88 719.013 196.361 720.833 200.239C722.653 204.117 723.691 208.315 723.889 212.594C724.086 216.873 723.439 221.149 721.983 225.177C720.528 229.206 718.294 232.909 715.408 236.074C712.522 239.239 709.04 241.805 705.163 243.625C701.285 245.445 697.087 246.483 692.808 246.68C688.529 246.878 684.253 246.23 680.224 244.775C676.195 243.32 672.493 241.086 669.327 238.199C656.016 226.062 647.92 174.537 647.92 174.537C647.92 174.537 699.971 177.856 713.282 189.994Z" fill="#FFC6C6"/>
<path id="Vector_30" d="M637.173 326.991C643.565 332.819 647.38 340.949 647.779 349.591C648.178 358.232 645.127 366.679 639.298 373.071C633.469 379.464 625.34 383.279 616.698 383.677C608.057 384.076 599.61 381.025 593.218 375.197C579.906 363.059 571.81 311.534 571.81 311.534C571.81 311.534 623.861 314.853 637.173 326.991Z" fill="#F5AFAF"/>
<path id="Vector_31" d="M777.401 356.822C785.826 349.926 808.466 344.719 809.506 344.483L810.829 344.182L810.835 345.539C810.839 346.698 810.875 374.026 804.687 381.81C801.614 385.67 797.135 388.153 792.233 388.711C787.331 389.269 782.408 387.858 778.546 384.788C774.684 381.717 772.2 377.239 771.639 372.337C771.078 367.436 772.487 362.512 775.555 358.649C776.104 357.976 776.723 357.364 777.401 356.822V356.822ZM808.65 346.924C803.132 348.277 782.23 353.744 777.257 360.002C774.55 363.414 773.308 367.762 773.805 372.089C774.301 376.416 776.495 380.369 779.904 383.08C783.314 385.791 787.66 387.037 791.987 386.545C796.315 386.053 800.27 383.863 802.984 380.456C807.96 374.197 808.575 352.604 808.65 346.924V346.924Z" fill="#F5AFAF"/>
<path id="Vector_32" d="M708.575 340.088C701.644 331.692 696.34 309.075 696.099 308.035L695.793 306.714L697.15 306.703C698.309 306.693 725.636 306.541 733.447 312.696C737.32 315.752 739.822 320.221 740.401 325.121C740.98 330.02 739.59 334.949 736.536 338.824C733.482 342.699 729.014 345.203 724.115 345.784C719.216 346.366 714.286 344.978 710.409 341.926C709.735 341.38 709.12 340.764 708.575 340.088V340.088ZM698.544 308.882C699.921 314.394 705.477 335.272 711.756 340.218C715.18 342.911 719.532 344.134 723.857 343.619C728.182 343.105 732.126 340.894 734.822 337.473C737.518 334.052 738.746 329.701 738.236 325.376C737.725 321.05 735.519 317.104 732.1 314.404C725.82 309.455 704.225 308.932 698.544 308.882V308.882Z" fill="#F5AFAF"/>
</g>
<defs>
<clipPath id="clip0">
<rect width="885.479" height="878" fill="white"/>
</clipPath>
</defs>
</svg>
